mtllib F.mtl
g Layer 7
v -104.447998 2.193359 458.804871
v -106.160156 0.004639 457.475769
v -104.464722 8.637451 458.777893
v -106.190674 10.807983 457.428528
v -93.754761 10.876953 467.117249
v -94.420166 10.031006 466.600525
v -93.756714 9.192139 467.119446
v -102.635010 9.143677 460.202332
v -102.757080 9.980591 460.105408
v -102.686768 9.138550 460.161926
v -102.818115 9.975098 460.057800
v -102.707764 9.134888 460.145691
v -102.893311 9.965576 459.999451
v -102.724976 9.130493 460.132385
v -103.018677 9.940674 459.901672
v -102.737915 9.125244 460.122131
v -103.599487 9.743042 459.449768
v -102.746216 9.119263 460.115784
v -103.536987 5.169189 459.508240
v -102.738037 6.189697 460.128601
v -94.249146 6.234131 466.742126
v -94.888184 5.422363 466.246155
v -94.251465 4.617065 466.743958
v -102.613403 4.575806 460.229065
v -102.738159 5.377808 460.130188
v -102.669678 4.570190 460.185242
v -102.801514 5.372070 460.080872
v -102.693115 4.566040 460.167175
v -102.874878 5.362427 460.023743
v -102.713013 4.560791 460.151672
v -102.982422 5.341309 459.940002
v -102.728760 4.554565 460.139343
v -102.740112 4.547241 460.130554
v -102.720581 0.043091 460.155579
v -102.738159 0.048096 460.141907
v -102.727295 0.026123 460.150330
v -102.639038 5.382935 460.207458
v -102.661743 9.985474 460.179626
v -104.461304 5.867310 458.786560
v -104.457153 5.876221 458.789856
v -106.160156 0.004639 457.475769
v -106.190674 10.807983 457.428528
v -104.470093 -0.000122 455.306458
v -104.500610 10.803223 455.259216
v -106.190674 10.807983 457.428528
v -93.754761 10.876953 467.117249
v -104.500610 10.803223 455.259216
v -92.064697 10.872192 464.947937
v -93.754761 10.876953 467.117249
v -93.756714 9.192139 467.119446
v -92.064697 10.872192 464.947937
v -92.066650 9.187378 464.950134
v -93.756714 9.192139 467.119446
v -102.635010 9.143677 460.202332
v -102.686768 9.138550 460.161926
v -102.707764 9.134888 460.145691
v -102.724976 9.130493 460.132385
v -102.737915 9.125244 460.122131
v -102.746216 9.119263 460.115784
v -92.066650 9.187378 464.950134
v -100.944946 9.138916 458.033020
v -100.996704 9.133789 457.992615
v -101.017700 9.130127 457.976379
v -101.034912 9.125732 457.963074
v -101.047852 9.120483 457.952820
v -101.056152 9.114502 457.946472
v -102.746216 9.119263 460.115784
v -102.738037 6.189697 460.128601
v -101.056152 9.114502 457.946472
v -101.047974 6.184937 457.959290
v -102.738037 6.189697 460.128601
v -94.249146 6.234131 466.742126
v -101.047974 6.184937 457.959290
v -92.559082 6.229370 464.572815
v -94.249146 6.234131 466.742126
v -94.251465 4.617065 466.743958
v -92.559082 6.229370 464.572815
v -92.561401 4.612305 464.574646
v -94.251465 4.617065 466.743958
v -102.613403 4.575806 460.229065
v -102.669678 4.570190 460.185242
v -102.693115 4.566040 460.167175
v -102.713013 4.560791 460.151672
v -102.728760 4.554565 460.139343
v -102.740112 4.547241 460.130554
v -92.561401 4.612305 464.574646
v -100.923340 4.571045 458.059753
v -100.979614 4.565430 458.015930
v -101.003052 4.561279 457.997864
v -101.022949 4.556030 457.982361
v -101.038696 4.549805 457.970032
v -101.050049 4.542480 457.961243
v -102.740112 4.547241 460.130554
v -102.720581 0.043091 460.155579
v -102.727295 0.026123 460.150330
v -101.050049 4.542480 457.961243
v -101.030518 0.038330 457.986267
v -101.037231 0.021362 457.981018
v -102.727295 0.026123 460.150330
v -106.160156 0.004639 457.475769
v -101.037231 0.021362 457.981018
v -104.470093 -0.000122 455.306458
v -102.757935 2.188599 456.635559
v -104.470093 -0.000122 455.306458
v -102.774658 8.632690 456.608582
v -104.500610 10.803223 455.259216
v -92.064697 10.872192 464.947937
v -92.730103 10.026245 464.431213
v -92.066650 9.187378 464.950134
v -100.944946 9.138916 458.033020
v -101.067017 9.975830 457.936096
v -100.996704 9.133789 457.992615
v -101.128052 9.970337 457.888489
v -101.017700 9.130127 457.976379
v -101.203247 9.960815 457.830139
v -101.034912 9.125732 457.963074
v -101.328613 9.935913 457.732361
v -101.047852 9.120483 457.952820
v -101.909424 9.738281 457.280457
v -101.056152 9.114502 457.946472
v -101.846924 5.164429 457.338928
v -101.047974 6.184937 457.959290
v -92.559082 6.229370 464.572815
v -93.198120 5.417603 464.076843
v -92.561401 4.612305 464.574646
v -100.923340 4.571045 458.059753
v -101.048096 5.373047 457.960876
v -100.979614 4.565430 458.015930
v -101.111450 5.367310 457.911560
v -101.003052 4.561279 457.997864
v -101.184814 5.357666 457.854431
v -101.022949 4.556030 457.982361
v -101.292358 5.336548 457.770691
v -101.038696 4.549805 457.970032
v -101.050049 4.542480 457.961243
v -101.030518 0.038330 457.986267
v -101.048096 0.043335 457.972595
v -101.037231 0.021362 457.981018
v -100.948975 5.378174 458.038147
v -100.971680 9.980713 458.010315
v -102.771240 5.862549 456.617249
v -102.767090 5.871460 456.620544
vt 0.138173 0.201598
vt 0.000000 0.000000
vt 0.138296 0.798097
vt 0.000000 1.000000
vt 1.000000 0.999216
vt 0.946294 0.921289
vt 0.999463 0.843264
vt 0.285533 0.843895
vt 0.275915 0.921427
vt 0.281383 0.843447
vt 0.271006 0.920963
vt 0.279693 0.843124
vt 0.264959 0.920111
vt 0.278307 0.842729
vt 0.254868 0.917887
vt 0.277259 0.842255
vt 0.208124 0.899938
vt 0.276583 0.841697
vt 0.212104 0.476531
vt 0.276582 0.570533
vt 0.959183 0.569747
vt 0.907632 0.494975
vt 0.958646 0.420065
vt 0.286233 0.421070
vt 0.276386 0.495373
vt 0.281722 0.420583
vt 0.271296 0.494880
vt 0.279832 0.420212
vt 0.265394 0.494037
vt 0.278233 0.419747
vt 0.256729 0.492151
vt 0.276959 0.419177
vt 0.276046 0.418498
vt 0.276582 0.001567
vt 0.275178 0.002048
vt 0.276046 0.000000
vt 0.284368 0.495798
vt 0.283574 0.921837
vt 0.137943 0.541679
vt 0.138287 0.542511
vt 1.000000 1.000000
vt 0.855182 1.000000
vt 1.000000 0.000000
vt 0.855182 0.000000
vt 0.855182 1.000000
vt 0.643856 1.000000
vt 0.855182 0.000000
vt 0.643856 0.000000
vt 0.643856 1.000000
vt 0.621271 1.000000
vt 0.643856 0.000000
vt 0.621271 0.000000
vt 0.621271 1.000000
vt 0.470400 1.000000
vt 0.469520 1.000000
vt 0.469160 1.000000
vt 0.468862 1.000000
vt 0.468630 1.000000
vt 0.468466 1.000000
vt 0.621271 0.000000
vt 0.470400 0.000000
vt 0.469520 0.000000
vt 0.469160 0.000000
vt 0.468862 0.000000
vt 0.468630 0.000000
vt 0.468466 0.000000
vt 0.468466 1.000000
vt 0.429196 1.000000
vt 0.468466 0.000000
vt 0.429196 0.000000
vt 0.429196 1.000000
vt 0.284945 1.000000
vt 0.429196 0.000000
vt 0.284945 0.000000
vt 0.284945 1.000000
vt 0.263268 1.000000
vt 0.284945 0.000000
vt 0.263268 0.000000
vt 0.263268 1.000000
vt 0.121170 1.000000
vt 0.120214 1.000000
vt 0.119811 1.000000
vt 0.119466 1.000000
vt 0.119185 1.000000
vt 0.118968 1.000000
vt 0.263268 0.000000
vt 0.121170 0.000000
vt 0.120214 0.000000
vt 0.119811 0.000000
vt 0.119466 0.000000
vt 0.119185 0.000000
vt 0.118968 0.000000
vt 0.118968 1.000000
vt 0.058589 1.000000
vt 0.058335 1.000000
vt 0.118968 0.000000
vt 0.058589 0.000000
vt 0.058335 0.000000
vt 0.058335 1.000000
vt -0.000000 1.000000
vt 0.058335 0.000000
vt -0.000000 0.000000
vt 0.138173 0.201598
vt 0.000000 0.000000
vt 0.138296 0.798097
vt 0.000000 1.000000
vt 1.000000 0.999216
vt 0.946294 0.921289
vt 0.999463 0.843264
vt 0.285533 0.843895
vt 0.275915 0.921427
vt 0.281383 0.843447
vt 0.271006 0.920963
vt 0.279693 0.843124
vt 0.264959 0.920111
vt 0.278307 0.842729
vt 0.254868 0.917887
vt 0.277259 0.842255
vt 0.208124 0.899938
vt 0.276583 0.841697
vt 0.212104 0.476531
vt 0.276582 0.570533
vt 0.959183 0.569747
vt 0.907632 0.494975
vt 0.958646 0.420065
vt 0.286233 0.421070
vt 0.276386 0.495373
vt 0.281722 0.420583
vt 0.271296 0.494880
vt 0.279832 0.420212
vt 0.265394 0.494037
vt 0.278233 0.419747
vt 0.256729 0.492151
vt 0.276959 0.419177
vt 0.276046 0.418498
vt 0.276582 0.001567
vt 0.275178 0.002048
vt 0.276046 0.000000
vt 0.284368 0.495798
vt 0.283574 0.921837
vt 0.137943 0.541679
vt 0.138287 0.542511
vn -0.614589 0.001720 0.788844
vn -0.614589 0.001720 0.788844
vn -0.614589 0.001720 0.788844
vn -0.614589 0.001720 0.788844
vn -0.614589 0.001720 0.788844
vn -0.613551 0.001717 0.787513
vn -0.614589 0.001720 0.788844
vn -0.614589 0.001720 0.788844
vn -0.614589 0.001720 0.788844
vn -0.614589 0.001720 0.788844
vn -0.614589 0.001720 0.788844
vn -0.614589 0.001720 0.788844
vn -0.614589 0.001720 0.788844
vn -0.614589 0.001720 0.788844
vn -0.614589 0.001720 0.788844
vn -0.614589 0.001720 0.788844
vn -0.614589 0.001720 0.788844
vn -0.614589 0.001720 0.788844
vn -0.614589 0.001720 0.788844
vn -0.614589 0.001720 0.788844
vn -0.613551 0.001717 0.787513
vn -0.614589 0.001720 0.788844
vn -0.614589 0.001720 0.788844
vn -0.614589 0.001720 0.788844
vn -0.614589 0.001720 0.788844
vn -0.613551 0.001717 0.787513
vn -0.614589 0.001720 0.788844
vn -0.614589 0.001720 0.788844
vn -0.614589 0.001720 0.788844
vn -0.613551 0.001717 0.787513
vn -0.614589 0.001720 0.788844
vn -0.614589 0.001720 0.788844
vn -0.614589 0.001720 0.788844
vn -0.614589 0.001720 0.788844
vn -0.614589 0.001720 0.788844
vn -0.614589 0.001720 0.788844
vn -0.614589 0.001720 0.788844
vn -0.614589 0.001720 0.788844
vn -0.614589 0.001720 0.788844
vn -0.614589 0.001720 0.788844
vn -0.788840 -0.004917 -0.614575
vn -0.788840 -0.004917 -0.614575
vn -0.788840 -0.004917 -0.614575
vn -0.788840 -0.004917 -0.614575
vn -0.002394 0.998300 -0.004042
vn -0.002394 0.998300 -0.004042
vn -0.002394 0.998300 -0.004042
vn -0.002394 0.998300 -0.004042
vn 0.787513 -0.000108 0.613552
vn 0.787513 -0.000108 0.613552
vn 0.787513 -0.000108 0.613552
vn 0.787513 -0.000108 0.613552
vn 0.002340 -0.998300 0.004000
vn 0.031734 -0.999133 0.026902
vn 0.082956 -0.992613 0.066795
vn 0.129360 -0.984528 0.102931
vn 0.195021 -0.966882 0.154049
vn 0.315431 -0.916035 0.247750
vn 0.390418 -0.866327 0.306064
vn 0.002340 -0.998300 0.004000
vn 0.031734 -0.999133 0.026902
vn 0.082956 -0.992613 0.066795
vn 0.129360 -0.984528 0.102931
vn 0.195021 -0.966882 0.154049
vn 0.315431 -0.916035 0.247750
vn 0.390418 -0.866327 0.306064
vn 0.788840 0.004915 0.614575
vn 0.788840 0.004915 0.614575
vn 0.788840 0.004915 0.614575
vn 0.788840 0.004915 0.614575
vn -0.002199 0.999988 -0.003894
vn -0.002199 0.999988 -0.003894
vn -0.002199 0.999988 -0.003894
vn -0.002199 0.999988 -0.003894
vn 0.788844 -0.000319 0.614590
vn 0.788844 -0.000319 0.614590
vn 0.788844 -0.000319 0.614590
vn 0.788844 -0.000319 0.614590
vn 0.002010 -0.998302 0.003743
vn 0.031518 -0.999144 0.026734
vn 0.084369 -0.992419 0.067896
vn 0.132358 -0.983882 0.105266
vn 0.195632 -0.968425 0.154528
vn 0.297940 -0.923599 0.234139
vn 0.360911 -0.888584 0.283123
vn 0.002010 -0.998302 0.003743
vn 0.031518 -0.999144 0.026734
vn 0.084369 -0.992419 0.067896
vn 0.132358 -0.983882 0.105266
vn 0.195632 -0.968425 0.154528
vn 0.297940 -0.923599 0.234139
vn 0.360911 -0.888584 0.283123
vn 0.787502 0.006783 0.613529
vn 0.767272 -0.223588 0.598269
vn 0.705689 -0.441908 0.550766
vn 0.787502 0.006783 0.613529
vn 0.767272 -0.223588 0.598269
vn 0.705689 -0.441908 0.550766
vn 0.002822 -0.999985 0.004379
vn 0.002822 -0.999985 0.004379
vn 0.002822 -0.999985 0.004379
vn 0.002822 -0.999985 0.004379
vn 0.614589 -0.001720 -0.788844
vn 0.614589 -0.001720 -0.788844
vn 0.614589 -0.001720 -0.788844
vn 0.614589 -0.001720 -0.788844
vn 0.614589 -0.001720 -0.788844
vn 0.613551 -0.001717 -0.787513
vn 0.614589 -0.001720 -0.788844
vn 0.614589 -0.001720 -0.788844
vn 0.614589 -0.001720 -0.788844
vn 0.614589 -0.001720 -0.788844
vn 0.614589 -0.001720 -0.788844
vn 0.614589 -0.001720 -0.788844
vn 0.614589 -0.001720 -0.788844
vn 0.614589 -0.001720 -0.788844
vn 0.614589 -0.001720 -0.788844
vn 0.614589 -0.001720 -0.788844
vn 0.614589 -0.001720 -0.788844
vn 0.614589 -0.001720 -0.788844
vn 0.614589 -0.001720 -0.788844
vn 0.614589 -0.001720 -0.788844
vn 0.613551 -0.001717 -0.787513
vn 0.614589 -0.001720 -0.788844
vn 0.614589 -0.001720 -0.788844
vn 0.614589 -0.001720 -0.788844
vn 0.614589 -0.001720 -0.788844
vn 0.613551 -0.001717 -0.787513
vn 0.614589 -0.001720 -0.788844
vn 0.614589 -0.001720 -0.788844
vn 0.614589 -0.001720 -0.788844
vn 0.613551 -0.001717 -0.787513
vn 0.614589 -0.001720 -0.788844
vn 0.614589 -0.001720 -0.788844
vn 0.614589 -0.001720 -0.788844
vn 0.614589 -0.001720 -0.788844
vn 0.614589 -0.001720 -0.788844
vn 0.614589 -0.001720 -0.788844
vn 0.614589 -0.001720 -0.788844
vn 0.614589 -0.001720 -0.788844
vn 0.614589 -0.001720 -0.788844
vn 0.614589 -0.001720 -0.788844
usemtl Layer 7 Front Inflation Material
f 39/39/39 40/40/40 4/4/4
f 38/38/38 6/6/6 4/4/4
f 7/7/7 5/5/5 6/6/6
f 38/38/38 8/8/8 6/6/6
f 9/9/9 10/10/10 38/38/38
f 11/11/11 12/12/12 9/9/9
f 13/13/13 14/14/14 11/11/11
f 15/15/15 16/16/16 13/13/13
f 17/17/17 18/18/18 15/15/15
f 19/19/19 20/20/20 40/40/40
f 37/37/37 22/22/22 20/20/20
f 23/23/23 21/21/21 22/22/22
f 37/37/37 24/24/24 22/22/22
f 25/25/25 26/26/26 37/37/37
f 27/27/27 28/28/28 25/25/25
f 29/29/29 30/30/30 27/27/27
f 31/31/31 32/32/32 29/29/29
f 39/39/39 33/33/33 19/19/19
f 1/1/1 35/35/35 33/33/33
f 36/36/36 34/34/34 35/35/35
f 1/1/1 2/2/2 35/35/35
f 4/4/4 2/2/2 39/39/39
f 3/3/3 4/4/4 40/40/40
f 1/1/1 39/39/39 2/2/2
f 38/38/38 4/4/4 9/9/9
f 5/5/5 4/4/4 6/6/6
f 9/9/9 4/4/4 11/11/11
f 11/11/11 4/4/4 13/13/13
f 13/13/13 4/4/4 15/15/15
f 15/15/15 4/4/4 17/17/17
f 3/3/3 17/17/17 4/4/4
f 7/7/7 6/6/6 8/8/8
f 8/8/8 38/38/38 10/10/10
f 10/10/10 9/9/9 12/12/12
f 12/12/12 11/11/11 14/14/14
f 14/14/14 13/13/13 16/16/16
f 16/16/16 15/15/15 18/18/18
f 40/40/40 20/20/20 3/3/3
f 20/20/20 18/18/18 3/3/3
f 17/17/17 3/3/3 18/18/18
f 37/37/37 20/20/20 25/25/25
f 21/21/21 20/20/20 22/22/22
f 25/25/25 20/20/20 27/27/27
f 27/27/27 20/20/20 29/29/29
f 29/29/29 20/20/20 31/31/31
f 19/19/19 31/31/31 20/20/20
f 23/23/23 22/22/22 24/24/24
f 24/24/24 37/37/37 26/26/26
f 26/26/26 25/25/25 28/28/28
f 28/28/28 27/27/27 30/30/30
f 30/30/30 29/29/29 32/32/32
f 40/40/40 39/39/39 19/19/19
f 19/19/19 33/33/33 31/31/31
f 32/32/32 31/31/31 33/33/33
f 39/39/39 1/1/1 33/33/33
f 34/34/34 33/33/33 35/35/35
f 36/36/36 35/35/35 2/2/2
usemtl Layer 7 Front Bevel Material
f 1/1/1 1/1/1 1/1/1
usemtl Layer 7 Extrusion Material
f 43/43/43 41/41/41 42/42/42
f 43/43/43 42/42/42 44/44/44
f 47/47/47 45/45/45 46/46/46
f 47/47/47 46/46/46 48/48/48
f 51/51/51 49/49/49 50/50/50
f 51/51/51 50/50/50 52/52/52
f 60/60/60 53/53/53 54/54/54
f 60/60/60 54/54/54 61/61/61
f 61/61/61 54/54/54 55/55/55
f 61/61/61 55/55/55 62/62/62
f 62/62/62 55/55/55 56/56/56
f 62/62/62 56/56/56 63/63/63
f 63/63/63 56/56/56 57/57/57
f 63/63/63 57/57/57 64/64/64
f 64/64/64 57/57/57 58/58/58
f 64/64/64 58/58/58 65/65/65
f 65/65/65 58/58/58 59/59/59
f 65/65/65 59/59/59 66/66/66
f 69/69/69 67/67/67 68/68/68
f 69/69/69 68/68/68 70/70/70
f 73/73/73 71/71/71 72/72/72
f 73/73/73 72/72/72 74/74/74
f 77/77/77 75/75/75 76/76/76
f 77/77/77 76/76/76 78/78/78
f 86/86/86 79/79/79 80/80/80
f 86/86/86 80/80/80 87/87/87
f 87/87/87 80/80/80 81/81/81
f 87/87/87 81/81/81 88/88/88
f 88/88/88 81/81/81 82/82/82
f 88/88/88 82/82/82 89/89/89
f 89/89/89 82/82/82 83/83/83
f 89/89/89 83/83/83 90/90/90
f 90/90/90 83/83/83 84/84/84
f 90/90/90 84/84/84 91/91/91
f 91/91/91 84/84/84 85/85/85
f 91/91/91 85/85/85 92/92/92
f 96/96/96 93/93/93 94/94/94
f 96/96/96 94/94/94 97/97/97
f 97/97/97 94/94/94 95/95/95
f 97/97/97 95/95/95 98/98/98
f 101/101/101 99/99/99 100/100/100
f 101/101/101 100/100/100 102/102/102
usemtl Layer 7 Back Bevel Material
f 1/1/1 1/1/1 1/1/1
usemtl Layer 7 Back Inflation Material
f 142/142/142 141/141/141 106/106/106
f 108/108/108 140/140/140 106/106/106
f 107/107/107 109/109/109 108/108/108
f 110/110/110 140/140/140 108/108/108
f 112/112/112 111/111/111 140/140/140
f 114/114/114 113/113/113 111/111/111
f 116/116/116 115/115/115 113/113/113
f 118/118/118 117/117/117 115/115/115
f 120/120/120 119/119/119 117/117/117
f 122/122/122 121/121/121 142/142/142
f 124/124/124 139/139/139 122/122/122
f 123/123/123 125/125/125 124/124/124
f 126/126/126 139/139/139 124/124/124
f 128/128/128 127/127/127 139/139/139
f 130/130/130 129/129/129 127/127/127
f 132/132/132 131/131/131 129/129/129
f 134/134/134 133/133/133 131/131/131
f 135/135/135 141/141/141 121/121/121
f 137/137/137 103/103/103 135/135/135
f 136/136/136 138/138/138 137/137/137
f 104/104/104 103/103/103 137/137/137
f 104/104/104 106/106/106 141/141/141
f 106/106/106 105/105/105 142/142/142
f 141/141/141 103/103/103 104/104/104
f 106/106/106 140/140/140 111/111/111
f 106/106/106 107/107/107 108/108/108
f 106/106/106 111/111/111 113/113/113
f 106/106/106 113/113/113 115/115/115
f 106/106/106 115/115/115 117/117/117
f 106/106/106 117/117/117 119/119/119
f 119/119/119 105/105/105 106/106/106
f 108/108/108 109/109/109 110/110/110
f 140/140/140 110/110/110 112/112/112
f 111/111/111 112/112/112 114/114/114
f 113/113/113 114/114/114 116/116/116
f 115/115/115 116/116/116 118/118/118
f 117/117/117 118/118/118 120/120/120
f 122/122/122 142/142/142 105/105/105
f 120/120/120 122/122/122 105/105/105
f 105/105/105 119/119/119 120/120/120
f 122/122/122 139/139/139 127/127/127
f 122/122/122 123/123/123 124/124/124
f 122/122/122 127/127/127 129/129/129
f 122/122/122 129/129/129 131/131/131
f 122/122/122 131/131/131 133/133/133
f 133/133/133 121/121/121 122/122/122
f 124/124/124 125/125/125 126/126/126
f 139/139/139 126/126/126 128/128/128
f 127/127/127 128/128/128 130/130/130
f 129/129/129 130/130/130 132/132/132
f 131/131/131 132/132/132 134/134/134
f 141/141/141 142/142/142 121/121/121
f 135/135/135 121/121/121 133/133/133
f 133/133/133 134/134/134 135/135/135
f 103/103/103 141/141/141 135/135/135
f 135/135/135 136/136/136 137/137/137
f 137/137/137 138/138/138 104/104/104
